# xmcd
#
# Track frame offsets: 
#        150
#        31332
#        56767
#        84137
#
# Disc length: 1474 seconds
#
# Revision: 2
# Processed by: cddbd v1.5.2PL0 Copyright (c) Steve Scherf et al.
# Submitted via: ExactAudioCopy v0.99pb5
#
DISCID=2505c004
DTITLE=C and C Music Factory - Just A Touch Of Love (Everyday) (Japan ma
DTITLE=xi)
DYEAR=1991
DGENRE=Techno
TTITLE0=Just A Touch Of Love (Everyday) (The Standard House Mix)
TTITLE1=Just A Touch Of Love (Everyday) (The Garage Dub 2Mix)
TTITLE2=Just A Touch Of Love (Everyday) (The C and C Garage Mix)
TTITLE3=Just A Touch Of Love (Everyday) (The C and C Garage Dub Mix)
EXTD=YEAR: 1991
EXTT0=
EXTT1=
EXTT2=
EXTT3=
PLAYORDER=
